<svg width="358" height="39" viewBox="0 0 358 39" fill="none" xmlns="http://www.w3.org/2000/svg">
<path d="M4.34 19.098C3.65867 19.098 3.04267 18.9813 2.492 18.748C1.95067 18.5147 1.52133 18.1787 1.204 17.74C0.886667 17.3013 0.723333 16.7833 0.714 16.186H2.814C2.842 16.5873 2.982 16.9047 3.234 17.138C3.49533 17.3713 3.85 17.488 4.298 17.488C4.75533 17.488 5.11467 17.3807 5.376 17.166C5.63733 16.942 5.768 16.6527 5.768 16.298C5.768 16.0087 5.67933 15.7707 5.502 15.584C5.32467 15.3973 5.10067 15.2527 4.83 15.15C4.56867 15.038 4.20467 14.9167 3.738 14.786C3.10333 14.5993 2.58533 14.4173 2.184 14.24C1.792 14.0533 1.45133 13.778 1.162 13.414C0.882 13.0407 0.742 12.546 0.742 11.93C0.742 11.3513 0.886667 10.8473 1.176 10.418C1.46533 9.98867 1.87133 9.662 2.394 9.438C2.91667 9.20467 3.514 9.088 4.186 9.088C5.194 9.088 6.01067 9.33533 6.636 9.83C7.27067 10.3153 7.62067 10.9967 7.686 11.874H5.53C5.51133 11.538 5.36667 11.2627 5.096 11.048C4.83467 10.824 4.48467 10.712 4.046 10.712C3.66333 10.712 3.35533 10.81 3.122 11.006C2.898 11.202 2.786 11.4867 2.786 11.86C2.786 12.1213 2.87 12.3407 3.038 12.518C3.21533 12.686 3.43 12.826 3.682 12.938C3.94333 13.0407 4.30733 13.162 4.774 13.302C5.40867 13.4887 5.92667 13.6753 6.328 13.862C6.72933 14.0487 7.07467 14.3287 7.364 14.702C7.65333 15.0753 7.798 15.5653 7.798 16.172C7.798 16.6947 7.66267 17.18 7.392 17.628C7.12133 18.076 6.72467 18.4353 6.202 18.706C5.67933 18.9673 5.05867 19.098 4.34 19.098ZM11.4293 9.228V15.276C11.4293 15.9387 11.6019 16.4473 11.9473 16.802C12.2926 17.1473 12.7779 17.32 13.4033 17.32C14.0379 17.32 14.5279 17.1473 14.8733 16.802C15.2186 16.4473 15.3913 15.9387 15.3913 15.276V9.228H17.3653V15.262C17.3653 16.0927 17.1833 16.7973 16.8193 17.376C16.4646 17.9453 15.9839 18.3747 15.3773 18.664C14.7799 18.9533 14.1126 19.098 13.3753 19.098C12.6473 19.098 11.9846 18.9533 11.3873 18.664C10.7993 18.3747 10.3326 17.9453 9.98725 17.376C9.64192 16.7973 9.46925 16.0927 9.46925 15.262V9.228H11.4293ZM26.385 12.252C26.385 12.7747 26.259 13.2647 26.007 13.722C25.7643 14.1793 25.377 14.548 24.845 14.828C24.3223 15.108 23.6596 15.248 22.857 15.248H21.219V19H19.259V9.228H22.857C23.613 9.228 24.257 9.35867 24.789 9.62C25.321 9.88133 25.7176 10.2407 25.979 10.698C26.2496 11.1553 26.385 11.6733 26.385 12.252ZM22.773 13.666C23.3143 13.666 23.7156 13.5447 23.977 13.302C24.2383 13.05 24.369 12.7 24.369 12.252C24.369 11.3 23.837 10.824 22.773 10.824H21.219V13.666H22.773ZM34.9025 12.252C34.9025 12.7747 34.7765 13.2647 34.5245 13.722C34.2819 14.1793 33.8945 14.548 33.3625 14.828C32.8399 15.108 32.1772 15.248 31.3745 15.248H29.7365V19H27.7765V9.228H31.3745C32.1305 9.228 32.7745 9.35867 33.3065 9.62C33.8385 9.88133 34.2352 10.2407 34.4965 10.698C34.7672 11.1553 34.9025 11.6733 34.9025 12.252ZM31.2905 13.666C31.8319 13.666 32.2332 13.5447 32.4945 13.302C32.7559 13.05 32.8865 12.7 32.8865 12.252C32.8865 11.3 32.3545 10.824 31.2905 10.824H29.7365V13.666H31.2905ZM40.8301 19.098C39.9155 19.098 39.0755 18.8833 38.3101 18.454C37.5448 18.0247 36.9381 17.432 36.4901 16.676C36.0421 15.9107 35.8181 15.0473 35.8181 14.086C35.8181 13.134 36.0421 12.28 36.4901 11.524C36.9381 10.7587 37.5448 10.1613 38.3101 9.732C39.0755 9.30267 39.9155 9.088 40.8301 9.088C41.7541 9.088 42.5941 9.30267 43.3501 9.732C44.1155 10.1613 44.7175 10.7587 45.1561 11.524C45.6041 12.28 45.8281 13.134 45.8281 14.086C45.8281 15.0473 45.6041 15.9107 45.1561 16.676C44.7175 17.432 44.1155 18.0247 43.3501 18.454C42.5848 18.8833 41.7448 19.098 40.8301 19.098ZM40.8301 17.348C41.4181 17.348 41.9361 17.2173 42.3841 16.956C42.8321 16.6853 43.1821 16.3027 43.4341 15.808C43.6861 15.3133 43.8121 14.7393 43.8121 14.086C43.8121 13.4327 43.6861 12.8633 43.4341 12.378C43.1821 11.8833 42.8321 11.5053 42.3841 11.244C41.9361 10.9827 41.4181 10.852 40.8301 10.852C40.2421 10.852 39.7195 10.9827 39.2621 11.244C38.8141 11.5053 38.4641 11.8833 38.2121 12.378C37.9601 12.8633 37.8341 13.4327 37.8341 14.086C37.8341 14.7393 37.9601 15.3133 38.2121 15.808C38.4641 16.3027 38.8141 16.6853 39.2621 16.956C39.7195 17.2173 40.2421 17.348 40.8301 17.348ZM52.3263 19L50.1703 15.192H49.2463V19H47.2863V9.228H50.9543C51.7103 9.228 52.3543 9.36333 52.8863 9.634C53.4183 9.89533 53.815 10.2547 54.0763 10.712C54.347 11.16 54.4823 11.664 54.4823 12.224C54.4823 12.868 54.2956 13.4513 53.9223 13.974C53.549 14.4873 52.9936 14.842 52.2563 15.038L54.5943 19H52.3263ZM49.2463 13.722H50.8843C51.4163 13.722 51.813 13.596 52.0743 13.344C52.3356 13.0827 52.4663 12.7233 52.4663 12.266C52.4663 11.818 52.3356 11.4727 52.0743 11.23C51.813 10.978 51.4163 10.852 50.8843 10.852H49.2463V13.722ZM62.9051 9.228V10.81H60.3011V19H58.3411V10.81H55.7371V9.228H62.9051Z" fill="white"/>
<path d="M338 9L344 15L350 9" stroke="#C9CAD4" stroke-width="1.5" stroke-linecap="round" stroke-linejoin="round"/>
<path opacity="0.5" d="M0 38H356" stroke="#888B95"/>
<path d="M4.34 19.098C3.65867 19.098 3.04267 18.9813 2.492 18.748C1.95067 18.5147 1.52133 18.1787 1.204 17.74C0.886667 17.3013 0.723333 16.7833 0.714 16.186H2.814C2.842 16.5873 2.982 16.9047 3.234 17.138C3.49533 17.3713 3.85 17.488 4.298 17.488C4.75533 17.488 5.11467 17.3807 5.376 17.166C5.63733 16.942 5.768 16.6527 5.768 16.298C5.768 16.0087 5.67933 15.7707 5.502 15.584C5.32467 15.3973 5.10067 15.2527 4.83 15.15C4.56867 15.038 4.20467 14.9167 3.738 14.786C3.10333 14.5993 2.58533 14.4173 2.184 14.24C1.792 14.0533 1.45133 13.778 1.162 13.414C0.882 13.0407 0.742 12.546 0.742 11.93C0.742 11.3513 0.886667 10.8473 1.176 10.418C1.46533 9.98867 1.87133 9.662 2.394 9.438C2.91667 9.20467 3.514 9.088 4.186 9.088C5.194 9.088 6.01067 9.33533 6.636 9.83C7.27067 10.3153 7.62067 10.9967 7.686 11.874H5.53C5.51133 11.538 5.36667 11.2627 5.096 11.048C4.83467 10.824 4.48467 10.712 4.046 10.712C3.66333 10.712 3.35533 10.81 3.122 11.006C2.898 11.202 2.786 11.4867 2.786 11.86C2.786 12.1213 2.87 12.3407 3.038 12.518C3.21533 12.686 3.43 12.826 3.682 12.938C3.94333 13.0407 4.30733 13.162 4.774 13.302C5.40867 13.4887 5.92667 13.6753 6.328 13.862C6.72933 14.0487 7.07467 14.3287 7.364 14.702C7.65333 15.0753 7.798 15.5653 7.798 16.172C7.798 16.6947 7.66267 17.18 7.392 17.628C7.12133 18.076 6.72467 18.4353 6.202 18.706C5.67933 18.9673 5.05867 19.098 4.34 19.098ZM11.4293 9.228V15.276C11.4293 15.9387 11.6019 16.4473 11.9473 16.802C12.2926 17.1473 12.7779 17.32 13.4033 17.32C14.0379 17.32 14.5279 17.1473 14.8733 16.802C15.2186 16.4473 15.3913 15.9387 15.3913 15.276V9.228H17.3653V15.262C17.3653 16.0927 17.1833 16.7973 16.8193 17.376C16.4646 17.9453 15.9839 18.3747 15.3773 18.664C14.7799 18.9533 14.1126 19.098 13.3753 19.098C12.6473 19.098 11.9846 18.9533 11.3873 18.664C10.7993 18.3747 10.3326 17.9453 9.98725 17.376C9.64192 16.7973 9.46925 16.0927 9.46925 15.262V9.228H11.4293ZM26.385 12.252C26.385 12.7747 26.259 13.2647 26.007 13.722C25.7643 14.1793 25.377 14.548 24.845 14.828C24.3223 15.108 23.6596 15.248 22.857 15.248H21.219V19H19.259V9.228H22.857C23.613 9.228 24.257 9.35867 24.789 9.62C25.321 9.88133 25.7176 10.2407 25.979 10.698C26.2496 11.1553 26.385 11.6733 26.385 12.252ZM22.773 13.666C23.3143 13.666 23.7156 13.5447 23.977 13.302C24.2383 13.05 24.369 12.7 24.369 12.252C24.369 11.3 23.837 10.824 22.773 10.824H21.219V13.666H22.773ZM34.9025 12.252C34.9025 12.7747 34.7765 13.2647 34.5245 13.722C34.2819 14.1793 33.8945 14.548 33.3625 14.828C32.8399 15.108 32.1772 15.248 31.3745 15.248H29.7365V19H27.7765V9.228H31.3745C32.1305 9.228 32.7745 9.35867 33.3065 9.62C33.8385 9.88133 34.2352 10.2407 34.4965 10.698C34.7672 11.1553 34.9025 11.6733 34.9025 12.252ZM31.2905 13.666C31.8319 13.666 32.2332 13.5447 32.4945 13.302C32.7559 13.05 32.8865 12.7 32.8865 12.252C32.8865 11.3 32.3545 10.824 31.2905 10.824H29.7365V13.666H31.2905ZM40.8301 19.098C39.9155 19.098 39.0755 18.8833 38.3101 18.454C37.5448 18.0247 36.9381 17.432 36.4901 16.676C36.0421 15.9107 35.8181 15.0473 35.8181 14.086C35.8181 13.134 36.0421 12.28 36.4901 11.524C36.9381 10.7587 37.5448 10.1613 38.3101 9.732C39.0755 9.30267 39.9155 9.088 40.8301 9.088C41.7541 9.088 42.5941 9.30267 43.3501 9.732C44.1155 10.1613 44.7175 10.7587 45.1561 11.524C45.6041 12.28 45.8281 13.134 45.8281 14.086C45.8281 15.0473 45.6041 15.9107 45.1561 16.676C44.7175 17.432 44.1155 18.0247 43.3501 18.454C42.5848 18.8833 41.7448 19.098 40.8301 19.098ZM40.8301 17.348C41.4181 17.348 41.9361 17.2173 42.3841 16.956C42.8321 16.6853 43.1821 16.3027 43.4341 15.808C43.6861 15.3133 43.8121 14.7393 43.8121 14.086C43.8121 13.4327 43.6861 12.8633 43.4341 12.378C43.1821 11.8833 42.8321 11.5053 42.3841 11.244C41.9361 10.9827 41.4181 10.852 40.8301 10.852C40.2421 10.852 39.7195 10.9827 39.2621 11.244C38.8141 11.5053 38.4641 11.8833 38.2121 12.378C37.9601 12.8633 37.8341 13.4327 37.8341 14.086C37.8341 14.7393 37.9601 15.3133 38.2121 15.808C38.4641 16.3027 38.8141 16.6853 39.2621 16.956C39.7195 17.2173 40.2421 17.348 40.8301 17.348ZM52.3263 19L50.1703 15.192H49.2463V19H47.2863V9.228H50.9543C51.7103 9.228 52.3543 9.36333 52.8863 9.634C53.4183 9.89533 53.815 10.2547 54.0763 10.712C54.347 11.16 54.4823 11.664 54.4823 12.224C54.4823 12.868 54.2956 13.4513 53.9223 13.974C53.549 14.4873 52.9936 14.842 52.2563 15.038L54.5943 19H52.3263ZM49.2463 13.722H50.8843C51.4163 13.722 51.813 13.596 52.0743 13.344C52.3356 13.0827 52.4663 12.7233 52.4663 12.266C52.4663 11.818 52.3356 11.4727 52.0743 11.23C51.813 10.978 51.4163 10.852 50.8843 10.852H49.2463V13.722ZM62.9051 9.228V10.81H60.3011V19H58.3411V10.81H55.7371V9.228H62.9051Z" fill="white"/>
<path d="M338 9L344 15L350 9" stroke="#C9CAD4" stroke-width="1.5" stroke-linecap="round" stroke-linejoin="round"/>
<path opacity="0.5" d="M0 38H356" stroke="#888B95"/>
</svg>
